<svg xmlns="http://www.w3.org/2000/svg" viewBox="0 0 96 88">
  <defs>
    <linearGradient id="face" x2="0" y2="1">
      <stop stop-color="#ff7651"/>
      <stop offset="1" stop-color="#df3025"/>
    </linearGradient>
  </defs>
  <g stroke="#35212b" stroke-width="3.2" stroke-linejoin="round" stroke-linecap="round">
    <path d="M19 35C5 27 2 48 15 55l9-3m53-17c14-8 17 13 4 20l-9-3" fill="#e83b2c"/>
    <path d="M22 28C8 18 12 5 16 3q3 12 18 17m40 8C88 18 84 5 80 3Q77 15 62 20" fill="#ffcc67"/>
    <path d="M17 35c1-17 14-22 31-22s30 5 31 22l2 18c2 20-13 28-33 28S13 73 15 53Z" fill="url(#face)"/>
    <path d="m32 18 5-8 10 8 10-8 7 9" fill="#30242c"/>
    <path d="m25 29 10-3m25 0 10 3" fill="none"/>
    <ellipse cx="34" cy="42" rx="12" ry="13" fill="#fff4d7" stroke-width="2.4"/>
    <ellipse cx="63" cy="42" rx="12" ry="13" fill="#fff4d7" stroke-width="2.4"/>
    <path d="M43 56q5-7 10 0" fill="#ffb38f" stroke-width="2.2"/>
    <path d="M33 65q15 17 30 0" fill="#642d33" stroke-width="2.4"/>
    <path d="m39 67 4 5 4-5m10 0-4 5-4-5" fill="#fff4d7" stroke-width="1.5"/>
  </g>
  <ellipse cx="39" cy="44" rx="4.5" ry="6" fill="#35212b"/>
  <ellipse cx="58" cy="44" rx="4.5" ry="6" fill="#35212b"/>
  <circle cx="40" cy="41" r="1.8" fill="#fff"/>
  <circle cx="59" cy="41" r="1.8" fill="#fff"/>
  <ellipse cx="25" cy="58" rx="7" ry="4" fill="#ffab90"/>
  <ellipse cx="72" cy="58" rx="7" ry="4" fill="#ffab90"/>
  <path d="M45 74q3-4 6 0v5q-3 4-6 0Z" fill="#ff907e"/>
</svg>
